<svg xmlns="http://www.w3.org/2000/svg" width="81.336" height="24" viewBox="0 0 81.336 24">
  <g id="RubEx_1" transform="translate(-4 -1.2)">
    <path id="Контур_1" data-name="Контур 1" d="M8.668,16.954v7.969H4V1.3h6.554a16.769,16.769,0,0,1,4.338.472,7.009,7.009,0,0,1,5,6.978,7.8,7.8,0,0,1-1.367,4.574A8.733,8.733,0,0,1,14,16.53l6.271,8.346H14.656L8.668,16.954Zm0-3.914c3.3,0,6.743.236,6.743-4.149,0-3.914-3.819-3.866-6.743-3.866Z" transform="translate(0 -0.053)" fill="#231f20" fill-rule="evenodd"/>
    <path id="Контур_2" data-name="Контур 2" d="M52.964,21v6.884a15.678,15.678,0,0,1-.33,3.3,4.726,4.726,0,0,1-1.886,2.782,5.839,5.839,0,0,1-2.122.99,8.585,8.585,0,0,1-2.452.377h-.99a11.037,11.037,0,0,1-2.5-.377,6.446,6.446,0,0,1-2.169-.99,4.589,4.589,0,0,1-1.886-2.782,15.678,15.678,0,0,1-.33-3.3V21h4.621v7.214a4.545,4.545,0,0,0,.424,2.216c.377.707,1.556.9,2.263.9s2.028-.236,2.4-.9a4.6,4.6,0,0,0,.377-2.263V21Z" transform="translate(-18.127 -10.464)" fill="#231f20" fill-rule="evenodd"/>
    <path id="Контур_3" data-name="Контур 3" d="M75.774,15.713c.141-.094.236-.189.377-.283a4.477,4.477,0,0,1,.8-.472,4.222,4.222,0,0,1,1.084-.377,7.092,7.092,0,0,1,1.367-.141,6.544,6.544,0,0,1,2.688.566,6.164,6.164,0,0,1,2.075,1.556,6.671,6.671,0,0,1,1.32,2.4,9.676,9.676,0,0,1,.472,3.065A8.552,8.552,0,0,1,85.44,25.1a6.991,6.991,0,0,1-1.415,2.358A6.043,6.043,0,0,1,81.9,28.962a6.505,6.505,0,0,1-2.688.519,4.662,4.662,0,0,1-1.415-.189,5.529,5.529,0,0,1-1.132-.424,4.477,4.477,0,0,1-.8-.472,1.271,1.271,0,0,1-.377-.33V29.1H71.2V9.3h4.621v5.611a4.849,4.849,0,0,1-.047.8Zm-.141,6.318a4.259,4.259,0,0,0,.189,1.32,3.107,3.107,0,0,0,.519,1.132,2.331,2.331,0,0,0,.9.754,2.751,2.751,0,0,0,1.226.283,2.5,2.5,0,0,0,1.415-.424,2.782,2.782,0,0,0,1.037-1.179,4.612,4.612,0,0,0,.424-1.933,4.564,4.564,0,0,0-.377-1.933,2.86,2.86,0,0,0-.99-1.226,2.647,2.647,0,0,0-1.462-.424,2.537,2.537,0,0,0-1.037.189,2.463,2.463,0,0,0-.9.66,3.293,3.293,0,0,0-.613,1.132A4.289,4.289,0,0,0,75.632,22.031Z" transform="translate(-35.514 -4.281)" fill="#231f20" fill-rule="evenodd"/>
    <path id="Контур_4" data-name="Контур 4" d="M104.3,24.823V1.2h14.523V6.339h-8.157v4.149h8.157v5.045h-8.157v4.008h8.157v5.281Z" transform="translate(-53.007 0)" fill="#d12127"/>
    <path id="Контур_5" data-name="Контур 5" d="M147.878,35.234,144.719,31.7l-3.112,3.536H135.1l6.365-7.167L135.1,20.9h6.743L145,24.389l3.018-3.489h6.507l-6.365,7.12,6.46,7.214Z" transform="translate(-69.285 -10.411)" fill="#d12127" fill-rule="evenodd"/>
  </g>
</svg>
